<svg width="626" height="106" viewBox="0 0 626 106" fill="none" xmlns="http://www.w3.org/2000/svg">
<path d="M21.9248 47.944H70.8464V66.872H21.9248V47.944ZM23.672 104H0.0848011V2.07999H77.1072V21.008H23.672V104ZM93.0754 104V2.07999H137.192C146.317 2.07999 154.179 3.58452 160.779 6.59359C167.38 9.50559 172.476 13.728 176.067 19.2608C179.659 24.7936 181.455 31.3941 181.455 39.0624C181.455 46.6336 179.659 53.1856 176.067 58.7184C172.476 64.1541 167.38 68.328 160.779 71.24C154.179 74.152 146.317 75.608 137.192 75.608H106.179L116.663 65.2704V104H93.0754ZM157.867 104L132.387 67.0176H157.576L183.347 104H157.867ZM116.663 67.8912L106.179 56.8256H135.882C143.162 56.8256 148.598 55.2725 152.189 52.1664C155.781 48.9632 157.576 44.5952 157.576 39.0624C157.576 33.4325 155.781 29.0645 152.189 25.9584C148.598 22.8523 143.162 21.2992 135.882 21.2992H106.179L116.663 10.088V67.8912ZM233.631 105.747C225.477 105.747 217.663 104.679 210.189 102.544C202.715 100.311 196.697 97.448 192.135 93.9536L200.143 76.1904C204.511 79.2965 209.655 81.8688 215.576 83.9072C221.594 85.8485 227.661 86.8192 233.776 86.8192C238.435 86.8192 242.173 86.3824 244.987 85.5088C247.899 84.5381 250.035 83.2277 251.394 81.5776C252.753 79.9275 253.432 78.0347 253.432 75.8992C253.432 73.1813 252.365 71.0459 250.229 69.4928C248.094 67.8427 245.279 66.5323 241.784 65.5616C238.29 64.4939 234.407 63.5232 230.136 62.6496C225.962 61.6789 221.74 60.5141 217.469 59.1552C213.295 57.7963 209.461 56.0491 205.967 53.9136C202.472 51.7781 199.609 48.9632 197.376 45.4688C195.241 41.9744 194.173 37.5093 194.173 32.0736C194.173 26.2496 195.726 20.9595 198.832 16.2032C202.035 11.3499 206.792 7.51572 213.101 4.70079C219.507 1.78879 227.515 0.332794 237.125 0.332794C243.531 0.332794 249.841 1.10933 256.053 2.66239C262.265 4.11839 267.75 6.35092 272.506 9.35999L265.226 27.2688C260.47 24.5509 255.713 22.5611 250.957 21.2992C246.201 19.9403 241.542 19.2608 236.979 19.2608C232.417 19.2608 228.68 19.7947 225.768 20.8624C222.856 21.9301 220.769 23.3376 219.507 25.0848C218.246 26.7349 217.615 28.6763 217.615 30.9088C217.615 33.5296 218.682 35.6651 220.818 37.3152C222.953 38.8683 225.768 40.1301 229.263 41.1008C232.757 42.0715 236.591 43.0421 240.765 44.0128C245.036 44.9835 249.258 46.0997 253.432 47.3616C257.703 48.6235 261.586 50.3221 265.08 52.4576C268.575 54.5931 271.39 57.408 273.525 60.9024C275.758 64.3968 276.874 68.8133 276.874 74.152C276.874 79.8789 275.272 85.1205 272.069 89.8768C268.866 94.6331 264.061 98.4672 257.655 101.379C251.345 104.291 243.337 105.747 233.631 105.747ZM312.681 104V21.2992H280.067V2.07999H368.883V21.2992H336.268V104H312.681ZM383.728 105.165C379.846 105.165 376.497 103.854 373.682 101.234C370.964 98.5157 369.605 95.0699 369.605 90.896C369.605 86.7221 370.964 83.3733 373.682 80.8496C376.497 78.2288 379.846 76.9184 383.728 76.9184C387.708 76.9184 391.057 78.2288 393.775 80.8496C396.493 83.3733 397.852 86.7221 397.852 90.896C397.852 95.0699 396.493 98.5157 393.775 101.234C391.057 103.854 387.708 105.165 383.728 105.165ZM459.132 105.747C444.669 105.747 433.361 101.719 425.207 93.6624C417.054 85.6059 412.977 74.1035 412.977 59.1552V2.07999H436.564V58.2816C436.564 67.9883 438.554 74.9771 442.534 79.248C446.513 83.5189 452.095 85.6544 459.278 85.6544C466.461 85.6544 472.042 83.5189 476.022 79.248C480.001 74.9771 481.991 67.9883 481.991 58.2816V2.07999H505.287V59.1552C505.287 74.1035 501.21 85.6059 493.057 93.6624C484.903 101.719 473.595 105.747 459.132 105.747ZM549.708 80.704L548.397 53.4768L597.173 2.07999H623.381L579.41 49.4L566.306 63.3776L549.708 80.704ZM528.596 104V2.07999H552.037V104H528.596ZM598.338 104L562.084 59.592L577.517 42.848L625.857 104H598.338Z" fill="white"/>
</svg>
