<svg width="50" height="50" viewBox="0 0 50 50" fill="none" xmlns="http://www.w3.org/2000/svg">
<g clip-path="url(#clip0_480_17848)">
<path d="M42.2969 8.11523L31.0078 1.60156C27.3164 -0.537109 22.7852 -0.537109 19.0938 1.60156L7.75586 8.11523C4.11328 10.2539 1.82812 14.209 1.82812 18.4375V31.5137C1.82812 35.791 4.11328 39.6973 7.75586 41.8359L19.0449 48.3984C22.7363 50.5371 27.2676 50.5371 30.959 48.3984L42.248 41.8359C45.9395 39.6973 48.1758 35.791 48.1758 31.5137V18.4375C48.2832 14.209 45.9883 10.2539 42.2969 8.11523ZM25.0215 36.6211C18.625 36.6211 13.4199 31.4062 13.4199 25C13.4199 18.5937 18.625 13.3789 25.0215 13.3789C31.418 13.3789 36.6719 18.5937 36.6719 25C36.6816 31.4062 31.4766 36.6211 25.0215 36.6211Z" fill="white"/>
</g>
<defs>
<clipPath id="clip0_480_17848">
<rect width="50" height="50" fill="white"/>
</clipPath>
</defs>
</svg>
