<?xml version="1.0" standalone="no"?>
<!DOCTYPE svg PUBLIC "-//W3C//DTD SVG 20010904//EN"
 "http://www.w3.org/TR/2001/REC-SVG-20010904/DTD/svg10.dtd">
<svg version="1.0" xmlns="http://www.w3.org/2000/svg"
 width="700.000000pt" height="700.000000pt" viewBox="0 0 700.000000 700.000000"
 preserveAspectRatio="xMidYMid meet">
<metadata>
Created by potrace 1.14, written by Peter Selinger 2001-2017
</metadata>
<g transform="translate(0.000000,700.000000) scale(0.100000,-0.100000)"
fill="#000000" stroke="none">
<path d="M3220 6859 c-1348 -116 -2493 -1016 -2918 -2294 -171 -513 -216
-1081 -126 -1615 99 -593 327 -1100 708 -1575 81 -100 337 -369 367 -386 14
-7 15 -3 8 34 -4 23 -8 886 -9 1918 0 1837 0 1877 20 1953 27 107 63 169 145
252 51 52 90 81 145 107 143 69 102 67 1547 67 l1294 0 35 -76 c73 -156 99
-352 70 -513 -28 -153 -94 -247 -214 -304 l-67 -32 -915 -5 -915 -5 0 -515 0
-515 873 -3 873 -2 35 -76 c59 -127 77 -211 78 -364 0 -104 -4 -149 -18 -195
-39 -129 -99 -204 -205 -254 l-56 -26 -787 -3 -788 -2 0 -860 0 -859 -37 -10
c-116 -31 -247 -44 -454 -45 -161 -1 -212 -4 -200 -12 112 -76 362 -203 540
-274 661 -262 1374 -310 2070 -140 254 62 571 186 792 309 115 64 214 126 186
117 -113 -36 -317 -32 -444 8 -150 48 -292 164 -361 294 -100 187 -98 469 4
663 116 221 392 347 678 311 371 -47 597 -322 573 -698 -7 -106 -43 -227 -87
-298 l-31 -49 43 34 c76 59 371 361 449 459 317 401 523 811 643 1282 223 871
89 1802 -372 2568 -151 253 -290 429 -512 650 -329 330 -661 554 -1079 730
-484 203 -1059 294 -1581 249z m2050 -3436 c116 -27 206 -79 295 -168 135
-134 180 -253 179 -470 -1 -112 -5 -141 -27 -211 -34 -103 -86 -183 -170 -260
-128 -118 -279 -174 -461 -174 -206 1 -355 58 -486 189 -87 87 -131 163 -160
277 -24 94 -26 257 -5 359 73 348 443 550 835 458z"/>
</g>
</svg>
