<svg width="1280" height="720" viewBox="0 0 1280 720" fill="none" xmlns="http://www.w3.org/2000/svg">
<path d="M1280 724.5H0V-4.5H1280V724.5ZM564.153 307.793C554.544 307.793 546.536 309.249 540.13 312.161C533.821 314.976 529.064 318.81 525.86 323.663C522.754 328.419 521.201 333.71 521.201 339.534C521.201 344.97 522.269 349.434 524.404 352.929C526.637 356.423 529.501 359.239 532.995 361.374C536.489 363.509 540.323 365.256 544.497 366.615C548.768 367.974 552.991 369.139 557.165 370.109C561.436 370.983 565.318 371.954 568.812 373.021C572.307 373.992 575.122 375.303 577.258 376.953C579.393 378.506 580.461 380.642 580.461 383.359C580.461 385.495 579.781 387.388 578.422 389.038C577.063 390.688 574.927 391.998 572.016 392.969C569.201 393.842 565.464 394.279 560.805 394.279C554.689 394.279 548.623 393.309 542.604 391.367C536.684 389.329 531.539 386.756 527.171 383.65L519.163 401.414C523.725 404.908 529.744 407.771 537.218 410.004C544.692 412.139 552.506 413.207 560.659 413.207C570.366 413.207 578.374 411.752 584.684 408.84C591.09 405.928 595.894 402.093 599.098 397.337C602.301 392.581 603.902 387.339 603.902 381.612C603.902 376.274 602.786 371.857 600.554 368.362C598.418 364.868 595.603 362.053 592.108 359.918C588.614 357.783 584.732 356.083 580.461 354.821C576.287 353.559 572.065 352.443 567.794 351.473C563.62 350.502 559.785 349.531 556.291 348.561C552.797 347.59 549.982 346.328 547.847 344.775C545.711 343.125 544.644 340.99 544.644 338.369C544.644 336.137 545.274 334.195 546.536 332.545C547.798 330.798 549.885 329.39 552.797 328.322C555.709 327.255 559.446 326.721 564.008 326.721C568.57 326.721 573.229 327.401 577.985 328.76C582.741 330.022 587.498 332.011 592.254 334.729L599.534 316.82C594.778 313.811 589.293 311.579 583.081 310.123C576.869 308.57 570.56 307.793 564.153 307.793ZM740.005 309.54V366.615C740.005 381.564 744.082 393.067 752.235 401.123C760.389 409.179 771.697 413.207 786.16 413.207C800.623 413.207 811.931 409.179 820.085 401.123C828.239 393.067 832.315 381.564 832.315 366.615V309.54H809.02V365.742C809.019 375.449 807.029 382.437 803.05 386.708C799.07 390.979 793.489 393.114 786.307 393.114C779.124 393.114 773.542 390.979 769.562 386.708C765.583 382.437 763.593 375.449 763.593 365.742V309.54H740.005ZM710.757 384.379C706.874 384.379 703.525 385.689 700.71 388.31C697.992 390.833 696.634 394.183 696.634 398.356C696.634 402.53 697.992 405.976 700.71 408.693C703.525 411.314 706.874 412.625 710.757 412.625C714.737 412.625 718.085 411.314 720.803 408.693C723.521 405.976 724.88 402.53 724.88 398.356C724.88 394.183 723.521 390.833 720.803 388.31C718.085 385.689 714.736 384.379 710.757 384.379ZM327.113 309.54V411.46H350.7V374.332H397.875V355.404H350.7V328.468H404.136V309.54H327.113ZM420.104 309.54V411.46H443.691V383.068H464.221C464.592 383.068 464.961 383.064 465.328 383.06L484.896 411.46H510.376L487.606 378.786C487.673 378.757 487.741 378.73 487.808 378.7C494.408 375.788 499.504 371.614 503.096 366.179C506.687 360.646 508.483 354.094 508.483 346.522C508.483 338.854 506.687 332.253 503.096 326.721C499.504 321.188 494.408 316.966 487.808 314.054C481.207 311.045 473.345 309.54 464.221 309.54H420.104ZM607.096 309.54V328.76H639.71V411.46H663.297V328.76H695.911V309.54H607.096ZM855.624 309.54V411.46H879.065V385.732L892.724 371.476L925.367 411.46H952.885L908.214 354.949L950.41 309.54H924.202L879.065 357.101V309.54H855.624ZM462.91 328.76C470.19 328.76 475.626 330.313 479.218 333.419C482.809 336.525 484.604 340.893 484.604 346.522C484.604 352.055 482.809 356.424 479.218 359.627C475.626 362.733 470.19 364.286 462.91 364.286H443.691V328.76H462.91Z" fill="#101010"/>
</svg>
